<?xml version="1.0" standalone="no"?>
<svg width="1116" height="1116" viewBox="0 0 1116 1116" fill="none" xmlns="http://www.w3.org/2000/svg">
    <path d="M277.534 608.877L305.434 398.755L63.0535 230.483L284.509 305.465L336.822 225.252L527.762 106.677L948.879 338.596L970.676 692.577L783.223 953.268L635.004 975.937L711.728 835.565V700.424L655.928 594.927L599.256 557.437L512.069 647.24V742.274L444.062 805.921L357.747 816.383L319.384 838.18L256.609 818.127L230.453 723.965L277.534 657.702V608.877Z" fill="white"/>
    <path d="M664.649 228.74C618.439 219.149 567.871 221.765 567.871 221.765C567.871 221.765 551.305 298.49 448.424 318.543C449.296 318.543 584.436 364.752 664.649 228.74Z" fill="#94A6C3"/>
    <path d="M706.498 924.496C762.298 880.902 804.148 820.743 823.329 752.737C824.201 750.121 832.048 745.762 837.279 742.274C845.998 737.043 854.717 732.683 856.46 725.708C859.948 705.655 861.692 684.73 861.692 663.805C861.692 655.959 853.845 648.112 845.998 640.265C839.895 635.033 833.792 628.93 833.792 624.571C825.073 545.23 788.454 471.121 730.038 417.065L723.935 423.168C780.607 476.352 817.226 548.718 825.073 625.443C825.945 632.418 832.92 639.393 839.895 646.368C845.998 651.599 852.973 659.446 852.973 662.934C852.973 682.987 851.229 703.04 847.742 723.093C846.87 726.58 839.023 730.068 832.92 733.555C824.201 737.915 816.354 742.274 814.61 749.249C793.685 823.358 745.732 887.877 682.085 929.727C693.42 905.315 729.167 825.974 748.348 785.868L744.86 656.83L634.132 549.59L571.357 558.309L502.479 669.908C502.479 669.908 534.738 710.887 489.401 758.84C444.935 805.921 410.06 816.384 410.06 816.384L377.801 798.946C387.392 786.74 406.573 768.43 421.395 756.224C446.679 735.299 471.963 733.555 471.963 710.887C472.835 663.805 422.267 676.884 422.267 676.884L403.957 694.321L396.11 758.84L357.748 806.793L353.388 805.921L290.613 791.971C290.613 791.971 328.976 771.918 335.079 749.249C341.182 727.452 322.873 655.087 322.001 650.727C322.873 651.599 340.31 666.421 348.157 690.833C362.107 652.471 380.417 615.852 385.648 612.365C390.879 608.877 461.501 571.387 461.501 571.387L437.96 633.29L455.398 623.699L497.248 520.818C497.248 520.818 538.226 500.765 568.742 500.765C623.67 499.893 704.754 432.759 668.135 312.44C678.598 316.799 859.948 407.474 891.335 585.337C914.876 722.221 837.279 850.387 706.498 924.496Z" fill="#94A6C3"/>
    <path d="M498.993 247.922C519.046 224.381 511.199 189.506 511.199 189.506L452.783 275.822C451.911 275.822 473.708 276.694 498.993 247.922Z" fill="#1B314F"/>
    <path d="M302.82 719.607L309.795 684.732C309.795 684.732 281.023 735.301 278.407 742.276C275.791 750.123 280.151 764.073 291.485 763.201C302.82 762.329 316.77 745.764 316.77 733.557C316.77 717.864 302.82 719.607 302.82 719.607Z" fill="#1B314F"/>
    <path d="M820.713 165.095C820.713 165.095 864.307 166.839 909.645 172.07C807.635 91.8569 710.857 68.3163 632.388 68.3163C524.276 68.3163 451.038 112.782 446.679 115.398L480.682 61.3413C480.682 61.3413 344.67 48.2632 296.717 192.123C284.51 161.607 273.176 117.142 273.176 117.142C273.176 117.142 202.554 179.045 235.685 281.926C154.601 252.282 38.6415 211.304 34.2821 210.432C28.179 209.561 26.4353 212.176 26.4353 212.176C26.4353 212.176 24.6915 214.792 29.9227 219.151C39.5134 226.998 222.607 362.139 262.713 388.295C253.995 419.682 253.995 434.504 262.713 449.326C274.92 469.379 275.791 479.842 274.048 494.664C272.304 509.486 256.61 637.65 253.123 653.344C249.635 669.039 213.016 724.838 214.76 741.403C216.504 757.969 239.173 828.591 259.226 836.438C274.048 841.669 310.666 853.004 335.079 853.004C343.798 853.004 351.645 851.259 355.132 847.772C369.954 834.694 374.313 832.078 384.776 832.078C385.648 832.078 386.52 832.078 387.391 832.078C391.751 832.078 396.982 832.95 403.085 832.95C417.035 832.95 435.345 830.336 448.423 818.129C467.604 798.948 500.735 772.791 511.198 760.584C524.276 744.019 531.251 721.35 527.763 698.681C525.148 677.756 536.482 659.447 549.56 641.138C566.126 619.341 596.641 580.107 596.641 580.107C656.801 625.445 694.292 694.322 694.292 771.047C694.292 907.059 575.716 1016.92 429.241 1016.92C406.573 1016.92 384.776 1014.3 362.979 1009.07C430.113 1032.61 486.785 1040.46 532.995 1040.46C631.517 1040.46 683.829 1004.71 683.829 1004.71C683.829 1004.71 665.52 1028.25 635.876 1055.28C636.748 1055.28 636.748 1055.28 636.748 1055.28C799.788 1032.61 879.129 898.341 879.129 898.341C879.129 898.341 873.026 941.934 865.179 971.578C1082.28 808.539 1045.66 604.52 1044.79 597.545C1046.53 600.161 1068.33 626.317 1079.66 640.266C1114.54 281.053 820.713 165.095 820.713 165.095ZM486.785 738.788C483.298 743.147 468.476 756.226 458.013 765.817C447.551 775.406 436.217 784.997 427.498 793.716C424.01 797.203 417.035 798.947 406.573 798.947C403.085 798.947 399.598 798.947 396.982 798.947C395.238 798.947 393.495 798.947 391.751 798.947C390.007 798.947 389.135 798.947 388.263 798.947C385.648 798.947 383.032 798.947 380.416 798.947C393.495 781.509 431.857 741.403 444.935 732.684C460.629 722.223 468.476 711.759 458.885 693.45C449.295 675.141 424.01 679.5 424.01 679.5C424.01 679.5 438.832 673.397 451.91 673.397C435.345 669.038 414.42 673.398 404.829 682.989C394.366 692.578 396.11 726.582 391.751 748.379C387.391 771.047 372.57 782.381 349.901 803.306C337.695 814.641 328.976 818.129 322.001 818.129C307.179 815.513 289.742 811.153 277.535 806.794C268.817 795.459 255.738 757.969 252.251 742.275C254.866 733.556 265.329 715.247 270.56 704.786C281.023 684.731 287.126 673.397 288.87 662.934C292.357 648.114 303.692 556.567 308.051 518.204C319.385 533.026 335.079 557.439 331.592 573.132C356.876 537.386 338.567 502.511 329.848 488.561C322.001 474.611 311.538 446.711 320.257 417.067C328.976 387.422 360.363 305.467 360.363 305.467C360.363 305.467 370.826 323.776 385.648 320.289C400.47 316.801 519.916 137.195 519.916 137.195C519.916 137.195 552.176 207.817 518.173 259.257C483.298 310.698 449.295 320.289 449.295 320.289C449.295 320.289 497.248 329.007 541.713 296.748C560.023 339.47 577.46 383.936 578.332 390.039C575.717 396.142 540.841 479.842 537.354 485.073C535.61 486.817 523.404 490.304 514.685 492.048C499.863 496.407 491.145 499.023 487.657 501.639C481.554 506.87 453.654 583.594 440.576 621.084C424.882 625.444 409.188 634.163 397.854 651.6C403.957 647.241 423.138 644.625 437.088 642.881C449.295 642.009 486.785 662.063 496.376 699.553C496.376 700.425 496.376 700.426 496.376 701.297C498.12 715.247 493.76 728.325 486.785 738.788ZM404.829 749.25C412.676 737.916 411.804 718.734 412.676 712.631C413.548 706.528 415.291 695.194 422.266 693.45C429.241 691.707 445.807 694.322 445.807 706.528C445.807 717.864 433.601 720.478 424.882 728.325C418.779 734.428 406.573 747.507 404.829 749.25ZM752.707 582.723C761.426 538.257 762.298 499.895 759.682 468.507C793.685 513.845 814.61 568.772 820.713 625.444C821.585 632.419 828.56 639.394 835.535 646.369C841.638 651.6 848.613 658.575 848.613 662.934C848.613 682.989 846.87 703.041 843.382 723.094C842.51 725.711 834.663 730.069 828.56 733.556C819.841 737.916 811.995 742.275 810.251 749.25C791.07 816.384 750.092 875.672 695.163 917.522C776.248 832.95 815.482 693.45 752.707 582.723ZM697.779 925.369C754.451 881.775 798.045 820.744 817.226 751.866C818.098 749.25 825.945 744.891 831.176 741.403C839.895 737.044 848.613 731.813 850.357 724.838C853.845 704.784 855.588 683.859 855.588 662.934C855.588 655.088 847.742 647.242 839.895 639.395C835.535 634.164 828.56 628.059 828.56 623.7C821.585 560.053 796.301 499.895 757.067 450.198C739.629 345.573 669.879 313.314 668.135 312.442C669.879 315.057 715.216 380.448 683.829 457.173C651.57 534.77 568.741 522.564 561.766 523.436C554.791 523.436 527.763 558.309 493.76 622.828C489.401 621.086 471.092 616.725 450.166 620.213C465.86 576.619 489.401 514.717 493.76 509.486C495.504 507.742 508.582 504.254 517.301 501.639C533.867 497.279 541.713 494.664 544.329 491.176C546.073 488.561 554.792 468.507 563.51 447.582C571.357 447.582 591.41 445.839 593.154 444.967C594.898 443.223 611.463 400.5 611.463 395.27C611.463 390.911 577.46 306.339 564.382 274.079C570.485 267.104 576.588 258.386 582.692 248.795C761.426 267.976 900.926 419.682 900.926 603.648C900.926 744.891 818.098 867.825 697.779 925.369Z" fill="#1B314F"/>
    <path d="M465.86 454.556C482.426 435.375 473.707 399.628 443.192 393.525C451.038 375.216 462.373 338.597 462.373 338.597C462.373 338.597 373.441 478.097 365.595 480.713C357.748 483.328 349.901 452.813 349.901 452.813C333.335 516.46 377.801 525.178 383.032 505.125C407.445 499.022 449.295 472.866 465.86 454.556Z" fill="#1B314F"/>
    <path d="M390.006 488.562L435.344 410.965C435.344 410.965 461.5 424.043 448.422 444.968C431.856 469.38 390.006 488.562 390.006 488.562Z" fill="#FFD923"/>
    <path d="M950.623 847.773C937.545 865.211 922.723 883.52 905.285 900.957C1017.76 684.732 910.517 486.817 906.157 478.97C914.004 486.817 921.851 495.536 928.826 503.382C1015.14 599.289 1025.6 743.148 950.623 847.773Z" fill="#D82122"/>
    <path d="M1055.25 569.644C1016.01 464.147 960.213 374.344 837.279 293.26C718.704 214.791 591.41 220.894 584.435 221.766C583.563 221.766 582.692 221.766 582.692 221.766C587.051 220.022 591.41 219.15 595.77 218.278C622.798 209.559 657.673 202.584 692.548 198.225C784.966 185.147 878.257 216.534 941.904 283.669C942.776 284.541 942.776 284.541 943.648 285.413C1016.01 362.138 1053.5 458.044 1055.25 569.644Z" fill="#D82122"/>
    <path d="M809.379 138.068C679.47 113.655 595.77 125.862 535.61 148.53C533.867 141.555 527.763 127.605 522.532 116.271C504.223 138.068 485.042 164.224 472.835 180.79C439.704 203.458 425.754 225.255 425.754 225.255C444.935 159.865 500.735 111.04 568.742 98.8338C587.923 95.3463 608.848 93.6025 631.517 93.6025C691.676 94.4744 751.835 109.296 809.379 138.068Z" fill="#D82122"/>
    <path d="M328.977 305.468C226.968 301.98 260.971 183.405 262.714 176.43C262.714 177.302 269.689 269.721 328.977 305.468Z" fill="#D82122"/>
    <path d="M429.242 91.8577C350.773 138.939 366.467 251.411 366.467 251.411C291.485 137.195 423.138 94.4733 429.242 91.8577Z" fill="#D82122"/>
    <path d="M300.205 336.853C305.436 341.213 310.668 349.059 304.564 360.394C301.077 366.497 295.846 365.625 287.999 362.138C277.536 356.906 214.761 320.288 158.089 282.797C222.608 305.466 287.999 329.878 298.461 335.109C298.461 335.109 299.333 335.981 300.205 336.853Z" fill="white"/>
</svg>

